<svg viewBox="0 0 24 24" fill="none" xmlns="http://www.w3.org/2000/svg">
<mask id="path-1-inside-1_47_31" fill="white">
<path fill-rule="evenodd" clip-rule="evenodd" d="M11 8.5V19C11 20.1046 10.1046 21 9 21C7.89543 21 7 20.1046 7 19V13.4735C7 13.2062 6.76731 13 6.5 13C4.01472 13 2 10.9853 2 8.5C2 6.01472 4.01472 4 6.5 4C8.81183 4 10.7165 5.74332 10.9711 7.98705C10.9719 7.99439 10.9781 8 10.9855 8C10.9935 8 11 8.00649 11 8.01449V8.5Z"/>
</mask>
<path d="M10.9711 7.98705L12.4615 7.81794L10.9711 7.98705ZM9.5 8.5V19H12.5V8.5H9.5ZM9.5 19C9.5 19.2761 9.27614 19.5 9 19.5V22.5C10.933 22.5 12.5 20.933 12.5 19H9.5ZM9 19.5C8.72386 19.5 8.5 19.2761 8.5 19H5.5C5.5 20.933 7.067 22.5 9 22.5V19.5ZM8.5 19V13.4735H5.5V19H8.5ZM6.5 11.5C4.84315 11.5 3.5 10.1569 3.5 8.5H0.5C0.5 11.8137 3.18629 14.5 6.5 14.5V11.5ZM3.5 8.5C3.5 6.84315 4.84315 5.5 6.5 5.5V2.5C3.18629 2.5 0.5 5.18629 0.5 8.5H3.5ZM6.5 5.5C8.04019 5.5 9.3111 6.66193 9.48065 8.15617L12.4615 7.81794C12.1219 4.8247 9.58348 2.5 6.5 2.5V5.5ZM9.5 8.01449V8.5H12.5V8.01449H9.5ZM9.48065 8.15617C9.56644 8.91224 10.2057 9.5 10.9855 9.5V6.5C11.7505 6.5 12.3774 7.07655 12.4615 7.81794L9.48065 8.15617ZM10.9855 9.5C10.1651 9.5 9.5 8.83491 9.5 8.01449H12.5C12.5 7.17806 11.8219 6.5 10.9855 6.5V9.5ZM8.5 13.4735C8.5 12.2739 7.48787 11.5 6.5 11.5V14.5C6.04676 14.5 5.5 14.1386 5.5 13.4735H8.5Z" fill="currentColor" mask="url(#path-1-inside-1_47_31)"/>
<mask id="path-3-inside-2_47_31" fill="white">
<path fill-rule="evenodd" clip-rule="evenodd" d="M13 8.5V19C13 20.1046 13.8954 21 15 21C16.1046 21 17 20.1046 17 19V13.4735C17 13.2062 17.2327 13 17.5 13C19.9853 13 22 10.9853 22 8.5C22 6.01472 19.9853 4 17.5 4C15.1882 4 13.2835 5.74332 13.0289 7.98705C13.0281 7.99439 13.0219 8 13.0145 8C13.0065 8 13 8.00649 13 8.01449V8.5Z"/>
</mask>
<path d="M13.0289 7.98705L11.5385 7.81794L13.0289 7.98705ZM14.5 8.5V19H11.5V8.5H14.5ZM14.5 19C14.5 19.2761 14.7239 19.5 15 19.5V22.5C13.067 22.5 11.5 20.933 11.5 19H14.5ZM15 19.5C15.2761 19.5 15.5 19.2761 15.5 19H18.5C18.5 20.933 16.933 22.5 15 22.5V19.5ZM15.5 19V13.4735H18.5V19H15.5ZM17.5 11.5C19.1569 11.5 20.5 10.1569 20.5 8.5H23.5C23.5 11.8137 20.8137 14.5 17.5 14.5V11.5ZM20.5 8.5C20.5 6.84315 19.1569 5.5 17.5 5.5V2.5C20.8137 2.5 23.5 5.18629 23.5 8.5H20.5ZM17.5 5.5C15.9598 5.5 14.6889 6.66193 14.5194 8.15617L11.5385 7.81794C11.8781 4.8247 14.4165 2.5 17.5 2.5V5.5ZM14.5 8.01449V8.5H11.5V8.01449H14.5ZM14.5194 8.15617C14.4336 8.91224 13.7943 9.5 13.0145 9.5V6.5C12.2495 6.5 11.6226 7.07655 11.5385 7.81794L14.5194 8.15617ZM13.0145 9.5C13.8349 9.5 14.5 8.83491 14.5 8.01449H11.5C11.5 7.17806 12.1781 6.5 13.0145 6.5V9.5ZM15.5 13.4735C15.5 12.2739 16.5121 11.5 17.5 11.5V14.5C17.9532 14.5 18.5 14.1386 18.5 13.4735H15.5Z" fill="currentColor" mask="url(#path-3-inside-2_47_31)"/>
</svg>
