<svg xmlns="http://www.w3.org/2000/svg" fill="none" viewBox="0 0 24 24"><path fill="currentColor" fill-rule="evenodd" d="M12.154 4.546A2.413 2.413 0 0 1 14.162 3.5c1.343 0 2.387 1.045 2.387 2.28 0 1.235-1.044 2.28-2.387 2.28a2.45 2.45 0 0 1-1.371-.413l-.404-.271-.413.258c-.413.26-.961.427-1.577.427-.53 0-1.01-.124-1.398-.325l-.387-.2-.365.237c-.28.18-.619.288-.987.288-.997 0-1.76-.774-1.76-1.675 0-.9.763-1.674 1.76-1.674.368 0 .707.107.987.288l.365.236.387-.2c.388-.2.868-.324 1.398-.324.329 0 .639.048.92.132l.528.159.31-.457Zm-6.9 4.343A3.13 3.13 0 0 1 4 6.386C4 4.61 5.484 3.212 7.26 3.212c.51 0 .995.115 1.427.32a4.637 4.637 0 0 1 1.71-.32c.289 0 .57.026.843.074A3.927 3.927 0 0 1 14.162 2c2.122 0 3.887 1.668 3.887 3.78a3.714 3.714 0 0 1-1.255 2.782V9.81l.048-.057 2.155 1.822c.394.332.62.821.62 1.336v2.608a1.75 1.75 0 0 1-.845 1.498l-1.978 1.194v.72a2.75 2.75 0 0 1-2.75 2.75h-6.04a2.75 2.75 0 0 1-2.75-2.75V8.89Zm11.54 7.57v-4.782l1.235 1.043a.25.25 0 0 1 .089.191v2.608a.25.25 0 0 1-.121.214l-1.203.726ZM7.26 9.561h-.505v9.37c0 .691.56 1.25 1.25 1.25h6.04c.69 0 1.25-.559 1.25-1.25v-9.37H7.26Zm1.755 2.886a.5.5 0 1 0-1 0v4.849a.5.5 0 0 0 1 0v-4.849Zm2.01-.5a.5.5 0 0 1 .5.5v4.849a.5.5 0 1 1-1 0v-4.849a.5.5 0 0 1 .5-.5Zm3.01.5a.5.5 0 1 0-1 0v4.849a.5.5 0 0 0 1 0v-4.849Z" clip-rule="evenodd"/></svg>