<svg viewBox="0 0 24 24" fill="none" xmlns="http://www.w3.org/2000/svg">
<mask id="path-1-inside-1_49_66" fill="white">
<path fill-rule="evenodd" clip-rule="evenodd" d="M21 12C21 10.8954 20.1046 10 19 10H5C3.89543 10 3 10.8954 3 12V18C3 19.1046 3.89543 20 5 20H5.5C6.32843 20 7 19.3284 7 18.5C7 17.6716 7.67157 17 8.5 17H15.5C16.3284 17 17 17.6716 17 18.5C17 19.3284 17.6716 20 18.5 20H19C20.1046 20 21 19.1046 21 18V12Z"/>
</mask>
<path d="M5 11.5H19V8.5H5V11.5ZM4.5 18V12H1.5V18H4.5ZM5.5 18.5H5V21.5H5.5V18.5ZM8.5 18.5H15.5V15.5H8.5V18.5ZM19 18.5H18.5V21.5H19V18.5ZM19.5 12V18H22.5V12H19.5ZM19 21.5C20.933 21.5 22.5 19.933 22.5 18H19.5C19.5 18.2761 19.2761 18.5 19 18.5V21.5ZM15.5 18.5C15.5 20.1569 16.8431 21.5 18.5 21.5V18.5H15.5ZM15.5 18.5H18.5C18.5 16.8431 17.1569 15.5 15.5 15.5V18.5ZM8.5 18.5V15.5C6.84315 15.5 5.5 16.8431 5.5 18.5H8.5ZM5.5 21.5C7.15685 21.5 8.5 20.1569 8.5 18.5H5.5V21.5ZM1.5 18C1.5 19.933 3.067 21.5 5 21.5V18.5C4.72386 18.5 4.5 18.2761 4.5 18H1.5ZM19 11.5C19.2761 11.5 19.5 11.7239 19.5 12H22.5C22.5 10.067 20.933 8.5 19 8.5V11.5ZM5 8.5C3.067 8.5 1.5 10.067 1.5 12H4.5C4.5 11.7239 4.72386 11.5 5 11.5V8.5Z" fill="currentColor" mask="url(#path-1-inside-1_49_66)"/>
<path d="M19 11L17.4558 6.36754C17.1836 5.55086 16.4193 5 15.5585 5H8.44152C7.58066 5 6.81638 5.55086 6.54415 6.36754L5 11" stroke="currentColor" stroke-width="1.5"/>
<rect x="6" y="13" width="2" height="1" rx="0.5" fill="currentColor"/>
<rect x="16" y="13" width="2" height="1" rx="0.5" fill="currentColor"/>
<path d="M19.0615 10.1076L20.9385 8.89243" stroke="currentColor" stroke-width="1.5" stroke-linecap="round"/>
<path d="M5 10L3 9" stroke="currentColor" stroke-width="1.5" stroke-linecap="round"/>
</svg>
