<svg viewBox="0 0 24 24" fill="none" xmlns="http://www.w3.org/2000/svg">
<path d="M17.9267 18.2292L17.7148 18.25H6.28521L6.07334 18.2292C4.12999 18.0382 2.75 16.6 2.75 15C2.75 13.8561 3.44142 12.8101 4.55479 12.222L5.08396 11.9425L4.92887 11.3645C4.81235 10.9302 4.75 10.473 4.75 10C4.75 7.10051 7.10051 4.75 10 4.75C12.2855 4.75 14.2318 6.21087 14.9522 8.25209L15.1231 8.73622L15.6363 8.75211C17.6121 8.81328 19.0914 10.1698 19.2376 11.7341L19.2733 12.1157L19.6034 12.3104C20.6243 12.9123 21.25 13.9107 21.25 15C21.25 16.6 19.87 18.0382 17.9267 18.2292Z" stroke="currentColor" stroke-width="1.5"/>
</svg>
