<svg xmlns="http://www.w3.org/2000/svg" fill="none" viewBox="0 0 24 24"><g clip-path="url(#a)"><path stroke="currentColor" stroke-linecap="round" stroke-width="1.2" d="M16.14 16.893c-1.312.274-2.617-.653-2.914-2.072l-.538-2.57m3.99 7.211c-2.625.55-5.235-1.306-5.829-4.144l-.537-2.57c-.297-1.418.526-2.791 1.839-3.066 1.313-.275 2.618.653 2.915 2.072l.268 1.285c.149.71.801 1.173 1.458 1.036.656-.138 1.068-.824.92-1.534l-.27-1.284c-.593-2.839-3.203-4.694-5.829-4.144-2.625.549-4.272 3.295-3.679 6.133m12.423.082-.537-2.569a8.489 8.489 0 0 0-.628-1.88c-1.085-1.918-2.532-3.113-3.12-3.47-1.482-.882-3.237-1.234-4.996-.866-3.939.824-6.41 4.943-5.519 9.2l.538 2.57a11.084 11.084 0 0 0 2.566 5.125m8.555.593c-3.938.824-7.853-1.958-8.744-6.216M3.18 14.241C1.992 8.565 5.287 3.073 10.538 1.974a9.045 9.045 0 0 1 3.079-.11"/></g><defs><clipPath id="a"><path fill="#fff" d="M0 0h24v24H0z"/></clipPath></defs></svg>