<svg viewBox="0 0 24 24" fill="none" xmlns="http://www.w3.org/2000/svg">
<path d="M22 9L12.4472 4.22361C12.1657 4.08284 11.8343 4.08284 11.5528 4.22361L3.78885 8.10557C3.05181 8.4741 3.05181 9.5259 3.78885 9.89443L5 10.5M22 9L19 10.5M22 9V12M5 10.5L11.5528 13.7764C11.8343 13.9172 12.1657 13.9172 12.4472 13.7764L19 10.5M5 10.5V17.5401C5 17.832 5.12408 18.1103 5.35556 18.2882C7.84925 20.2042 13.4102 22.4698 18.6434 18.295C18.8716 18.1129 19 17.832 19 17.5401V10.5" stroke="currentColor" stroke-width="1.5" stroke-linecap="round"/>
<ellipse cx="12" cy="9" rx="2" ry="1" fill="currentColor"/>
</svg>
