<svg viewBox="0 0 24 24" fill="none" xmlns="http://www.w3.org/2000/svg">
<mask id="path-1-inside-1_42_47" fill="white">
<path fill-rule="evenodd" clip-rule="evenodd" d="M16 13H8C6.34315 13 5 11.6569 5 10C5 8.34315 6.34315 7 8 7C8.04199 7 8.08378 7.00086 8.12536 7.00257C8.5685 5.27604 10.1352 4 12 4C13.8648 4 15.4315 5.27604 15.8746 7.00257C15.9162 7.00086 15.958 7 16 7C17.6569 7 19 8.34315 19 10C19 11.6569 17.6569 13 16 13Z"/>
</mask>
<path d="M8.12536 7.00257L8.06375 8.50131L9.2765 8.55115L9.57826 7.37549L8.12536 7.00257ZM15.8746 7.00257L14.4217 7.37549L14.7235 8.55116L15.9363 8.50131L15.8746 7.00257ZM16 11.5H8V14.5H16V11.5ZM3.5 10C3.5 12.4853 5.51472 14.5 8 14.5V11.5C7.17157 11.5 6.5 10.8284 6.5 10H3.5ZM8 5.5C5.51472 5.5 3.5 7.51472 3.5 10H6.5C6.5 9.17157 7.17157 8.5 8 8.5V5.5ZM8.18696 5.50384C8.12487 5.50129 8.06254 5.5 8 5.5V8.5C8.02144 8.5 8.0427 8.50044 8.06375 8.50131L8.18696 5.50384ZM12 2.5C9.43389 2.5 7.2817 4.25598 6.67245 6.62966L9.57826 7.37549C9.85531 6.2961 10.8366 5.5 12 5.5V2.5ZM17.3275 6.62966C16.7183 4.25598 14.5661 2.5 12 2.5V5.5C13.1634 5.5 14.1447 6.2961 14.4217 7.37549L17.3275 6.62966ZM16 5.5C15.9375 5.5 15.8751 5.50129 15.813 5.50384L15.9363 8.50131C15.9573 8.50044 15.9786 8.5 16 8.5V5.5ZM20.5 10C20.5 7.51472 18.4853 5.5 16 5.5V8.5C16.8284 8.5 17.5 9.17157 17.5 10H20.5ZM16 14.5C18.4853 14.5 20.5 12.4853 20.5 10H17.5C17.5 10.8284 16.8284 11.5 16 11.5V14.5Z" fill="currentColor" mask="url(#path-1-inside-1_42_47)"/>
<path d="M8.5 12.5C8.5 13.616 9.9946 17.7766 11.0893 19.8336C11.553 20.705 12.3413 20.5982 12.8038 19.7261C13.8608 17.7333 15.5 13.9784 15.5 12.5" stroke="currentColor" stroke-width="1.5"/>
</svg>
