<svg viewBox="0 0 24 24" fill="none" xmlns="http://www.w3.org/2000/svg">
<path d="M4.5 14V14C3.67157 14 3 14.6716 3 15.5V17C3 18.1046 3.89543 19 5 19H19C20.1046 19 21 18.1046 21 17V15.5C21 14.6716 20.3284 14 19.5 14V14M4.5 14H8.17157C8.70201 14 9.20091 14.2255 9.63951 14.5238C10.7485 15.2781 12.5726 15.859 14.3724 14.5413C14.8004 14.2279 15.298 14 15.8284 14H19.5M4.5 14V7C4.5 5.89543 5.39543 5 6.5 5H17.5C18.6046 5 19.5 5.89543 19.5 7V14" stroke="currentColor" stroke-width="1.5" stroke-linecap="round"/>
</svg>
