<svg viewBox="0 0 24 24" fill="none" xmlns="http://www.w3.org/2000/svg">
<mask id="path-1-inside-1_41_33" fill="white">
<path fill-rule="evenodd" clip-rule="evenodd" d="M8.20875 2.96335C8.94523 2.59195 9.65697 3.36098 9.47888 4.16635C8.83053 7.09827 9.41927 10.0672 11.3638 12.2225C13.3841 14.4618 16.4282 15.3353 19.5334 14.8776C20.3475 14.7577 21.0609 15.5202 20.64 16.2272C18.9878 19.0025 15.9524 20.8627 12.4814 20.8627C7.24495 20.8627 3 16.6292 3 11.4069C3 7.71753 5.11864 4.52165 8.20875 2.96335Z"/>
</mask>
<path d="M11.3638 12.2225L12.4775 11.2177L12.4775 11.2177L11.3638 12.2225ZM19.5334 14.8776L19.3147 13.3937L19.5334 14.8776ZM12.4775 11.2177C10.9123 9.48286 10.381 7.03391 10.9435 4.49022L8.01426 3.84248C7.28006 7.16264 7.92622 10.6516 10.2501 13.2273L12.4775 11.2177ZM19.3147 13.3937C16.6119 13.792 14.1028 13.0191 12.4775 11.2177L10.2501 13.2273C12.6655 15.9045 16.2446 16.8786 19.7521 16.3616L19.3147 13.3937ZM19.3511 15.4599C17.9589 17.7986 15.4034 19.3627 12.4814 19.3627V22.3627C16.5014 22.3627 20.0168 20.2065 21.9289 16.9945L19.3511 15.4599ZM12.4814 19.3627C8.06955 19.3627 4.5 15.797 4.5 11.4069H1.5C1.5 17.4614 6.42034 22.3627 12.4814 22.3627V19.3627ZM4.5 11.4069C4.5 8.30711 6.27858 5.61664 8.88416 4.30268L7.53334 1.62401C3.95869 3.42666 1.5 7.12795 1.5 11.4069H4.5ZM19.7521 16.3616C19.6446 16.3775 19.5173 16.3419 19.4135 16.2215C19.356 16.1547 19.2892 16.0408 19.2699 15.881C19.2492 15.7092 19.2928 15.5578 19.3511 15.4599L21.9289 16.9945C22.51 16.0183 22.2804 14.9528 21.6861 14.2631C21.1273 13.6146 20.2362 13.2579 19.3147 13.3937L19.7521 16.3616ZM10.9435 4.49022C11.1449 3.57964 10.852 2.66441 10.2448 2.06027C9.59884 1.41751 8.55046 1.11109 7.53334 1.62401L8.88416 4.30268C8.78231 4.35405 8.62784 4.38697 8.45765 4.354C8.29947 4.32335 8.19079 4.24858 8.12876 4.18686C8.01707 4.07572 7.99099 3.94769 8.01426 3.84248L10.9435 4.49022Z" fill="currentColor" mask="url(#path-1-inside-1_41_33)"/>
</svg>
