<svg viewBox="0 0 24 24" fill="none" xmlns="http://www.w3.org/2000/svg">
<mask id="path-1-inside-1_42_39" fill="white">
<path fill-rule="evenodd" clip-rule="evenodd" d="M11 5.5C11 5.22386 10.7761 5 10.5 5H6C3.79086 5 2 6.79086 2 9V16C2 18.2091 3.79086 20 6 20H10.5C10.7761 20 11 19.7761 11 19.5V5.5ZM13 19.5C13 19.7761 13.2239 20 13.5 20H18C20.2091 20 22 18.2091 22 16V9C22 6.79086 20.2091 5 18 5H13.5C13.2239 5 13 5.22386 13 5.5V19.5Z"/>
</mask>
<path d="M6 6.5H10.5V3.5H6V6.5ZM3.5 9C3.5 7.61929 4.61929 6.5 6 6.5V3.5C2.96243 3.5 0.5 5.96243 0.5 9H3.5ZM3.5 16V9H0.5V16H3.5ZM6 18.5C4.61929 18.5 3.5 17.3807 3.5 16H0.5C0.5 19.0376 2.96243 21.5 6 21.5V18.5ZM10.5 18.5H6V21.5H10.5V18.5ZM12.5 19.5V5.5H9.5V19.5H12.5ZM18 18.5H13.5V21.5H18V18.5ZM20.5 16C20.5 17.3807 19.3807 18.5 18 18.5V21.5C21.0376 21.5 23.5 19.0376 23.5 16H20.5ZM20.5 9V16H23.5V9H20.5ZM18 6.5C19.3807 6.5 20.5 7.61929 20.5 9H23.5C23.5 5.96243 21.0376 3.5 18 3.5V6.5ZM13.5 6.5H18V3.5H13.5V6.5ZM11.5 5.5V19.5H14.5V5.5H11.5ZM13.5 18.5C14.0523 18.5 14.5 18.9477 14.5 19.5H11.5C11.5 20.6046 12.3954 21.5 13.5 21.5V18.5ZM10.5 21.5C11.6046 21.5 12.5 20.6046 12.5 19.5H9.5C9.5 18.9477 9.94772 18.5 10.5 18.5V21.5ZM13.5 3.5C12.3954 3.5 11.5 4.39543 11.5 5.5H14.5C14.5 6.05228 14.0523 6.5 13.5 6.5V3.5ZM10.5 6.5C9.94771 6.5 9.5 6.05228 9.5 5.5H12.5C12.5 4.39543 11.6046 3.5 10.5 3.5V6.5Z" fill="currentColor" mask="url(#path-1-inside-1_42_39)"/>
<circle cx="6" cy="9" r="1" fill="currentColor"/>
<circle cx="18" cy="16" r="1" fill="currentColor"/>
</svg>
