<svg xmlns="http://www.w3.org/2000/svg" fill="none" viewBox="0 0 24 24"><circle cx="15.75" cy="9.75" r=".75" fill="currentColor"/><circle cx="17.75" cy="9.75" r=".75" fill="currentColor"/><path fill="currentColor" d="m5.293 7.84-.057-.748.057.748Zm13.467-.034-.068.747.068-.747ZM7.663 18.86l.743.106-.743-.106Zm8.674 0 .742-.107-.742.107Zm-9.412-6.605a.75.75 0 0 0 .15 1.492l-.15-1.492Zm10 1.492a.75.75 0 0 0 .15-1.492l-.15 1.492ZM8 15.25H5.5v1.5H8v-1.5ZM4.25 14V9.8h-1.5V14h1.5Zm15.5-4.249V14h1.5V9.751h-1.5ZM18.5 15.25H16v1.5h2.5v-1.5ZM5.35 8.588c3.328-.254 8.685-.46 13.342-.035l.136-1.494c-4.776-.435-10.226-.224-13.592.033l.114 1.496ZM19.75 14c0 .69-.56 1.25-1.25 1.25v1.5A2.75 2.75 0 0 0 21.25 14h-1.5Zm1.5-4.249c0-1.371-1.019-2.564-2.422-2.692l-.136 1.494c.593.054 1.058.564 1.058 1.198h1.5Zm-17 .05c0-.644.483-1.166 1.1-1.213l-.114-1.496C3.812 7.201 2.75 8.397 2.75 9.801h1.5ZM5.5 15.25c-.69 0-1.25-.56-1.25-1.25h-1.5a2.75 2.75 0 0 0 2.75 2.75v-1.5ZM8.75 8V5h-1.5v3h1.5ZM9 4.75h6v-1.5H9v1.5Zm6.25.25v3h1.5V5h-1.5ZM15 4.75a.25.25 0 0 1 .25.25h1.5A1.75 1.75 0 0 0 15 3.25v1.5ZM8.75 5A.25.25 0 0 1 9 4.75v-1.5A1.75 1.75 0 0 0 7.25 5h1.5Zm-.992 7.894-.837 5.859 1.485.212.836-5.859-1.484-.212Zm.895 7.856h6.694v-1.5H8.653v1.5Zm8.426-1.997-.837-5.86-1.485.213.838 5.859 1.484-.212Zm-1.732 1.997a1.75 1.75 0 0 0 1.732-1.997l-1.485.212a.25.25 0 0 1-.247.285v1.5Zm-8.426-1.997a1.75 1.75 0 0 0 1.732 1.997v-1.5a.25.25 0 0 1-.247-.285l-1.485-.212Zm.154-5.007c1.634-.163 5.915-.393 9.85 0l.15-1.492c-4.065-.407-8.45-.17-10.15 0l.15 1.492Z"/></svg>