<svg viewBox="0 0 24 24" fill="none" xmlns="http://www.w3.org/2000/svg">
<path d="M6.78733 17.2414V17.2414C5.47554 17.2414 4.40025 16.2008 4.35724 14.8897L4.21719 10.6207M6.78733 17.2414L4.43439 20.5M6.78733 17.2414H17.1403M17.1403 17.2414V17.2414C18.4541 17.2414 19.533 16.203 19.5832 14.8902L19.7466 10.6207M17.1403 17.2414L19.5 20.5M8.19909 20H15.7285M4.21719 10.6207L4.10164 7.09836C4.04605 5.40387 5.40462 4 7.10003 4H16.883C18.5848 4 19.9459 5.41413 19.8808 7.11474L19.7466 10.6207M4.21719 10.6207H19.7466" stroke="currentColor" stroke-width="1.5" stroke-linecap="round"/>
<rect x="6" y="13" width="4" height="1.5" rx="0.7" fill="currentColor"/>
<rect x="14" y="13" width="4" height="1.5" rx="0.7" fill="currentColor"/>
</svg>
