<svg viewBox="0 0 24 24" fill="none" xmlns="http://www.w3.org/2000/svg">
<path fill-rule="evenodd" clip-rule="evenodd" d="M20.5 12C20.5 16.6944 16.6944 20.5 12 20.5C10.8987 20.5 9.84633 20.2906 8.88053 19.9093L8.90619 19.8695C8.20681 19.4189 7.95514 18.8195 7.90462 18.1786C7.8512 17.5009 8.02853 16.7909 8.21213 16.2353L8.21694 16.2208L8.22115 16.206C8.55308 15.0443 9.60558 13.8765 10.9277 12.8563C12.2244 11.8557 13.6626 11.0866 14.579 10.6902C16.688 9.80745 17.6603 8.44913 17.8902 7.01905C17.9514 6.63853 17.9581 6.26428 17.9253 5.90564C19.5134 7.45 20.5 9.60979 20.5 12ZM15.8917 4.44123C14.7256 3.83967 13.4025 3.5 12 3.5C7.30558 3.5 3.5 7.30558 3.5 12C3.5 14.5589 4.63079 16.8538 6.41993 18.4121C6.41584 18.3735 6.41229 18.3349 6.40926 18.2964C6.33254 17.3233 6.58205 16.3902 6.78321 15.7788C7.2554 14.147 8.62719 12.7368 10.0114 11.6687C11.4234 10.5791 12.9756 9.74897 13.988 9.31153L13.9962 9.30795L13.9963 9.308C15.7126 8.59069 16.2749 7.61656 16.4092 6.78095C16.5509 5.89965 16.2429 5.00463 15.8917 4.44123ZM22 12C22 17.5228 17.5228 22 12 22C6.47715 22 2 17.5228 2 12C2 6.47715 6.47715 2 12 2C17.5228 2 22 6.47715 22 12ZM13 6.5C13 7.32843 12.3284 8 11.5 8C10.6716 8 10 7.32843 10 6.5C10 5.67157 10.6716 5 11.5 5C12.3284 5 13 5.67157 13 6.5ZM11.5 19C12.3284 19 13 18.3284 13 17.5C13 16.6716 12.3284 16 11.5 16C10.6716 16 10 16.6716 10 17.5C10 18.3284 10.6716 19 11.5 19Z" fill="currentColor"/>
</svg>
